# xmcd
#
# Track frame offsets:
#	150
#	16500
#	30675
#	44475
#	59025
#	78225
#	95325
#	118125
#	136350
#	155850
#	177675
#	192225
#	213900
#	236625
#	253875
#	274275
#	292950
#	311325
#
# Disc length: 4423 seconds
#
# Revision: 1
# Processed by: cddbd v1.5PL3 Copyright (c) Steve Scherf et al.
# Submitted via: CDex 1.50Beta5
#
DISCID=0b114512
DTITLE=Various Artist - 80'sドラマソングブック
DYEAR=1900
DGENRE=
TTITLE0=やさしさ紙芝居
TTITLE1=僕らのダイアリー
TTITLE2=KAZE/NORMANDIE
TTITLE3=萌ゆる想い
TTITLE4=思えば遠くへ来たもんだ
TTITLE5=17才の頃
TTITLE6=だけど泣かないさ
TTITLE7=糸電話
TTITLE8=風色のサンバ
TTITLE9=ヒーローHolding Out For A Hero
TTITLE10=Romanticが止まらない
TTITLE11=サイレンスがいっぱい
TTITLE12=恋におちて-Fall In Love-
TTITLE13=銀色の浪漫〜Follow You〜
TTITLE14=君は1000%
TTITLE15=Stranger Dream
TTITLE16=SHOW ME
TTITLE17=アクアマリンのままでいて
EXTD=
EXTT0=
EXTT1=
EXTT2=
EXTT3=
EXTT4=
EXTT5=
EXTT6=
EXTT7=
EXTT8=
EXTT9=
EXTT10=
EXTT11=
EXTT12=
EXTT13=
EXTT14=
EXTT15=
EXTT16=
EXTT17=
PLAYORDER=
